<svg version="1.1" xmlns="http://www.w3.org/2000/svg" xmlns:xlink="http://www.w3.org/1999/xlink" width="121px" height="121px" viewBox="0,0,256,256"><g fill="none" fill-rule="nonzero" stroke="none" stroke-width="1" stroke-linecap="butt" stroke-linejoin="none" stroke-miterlimit="10" stroke-dasharray="" stroke-dashoffset="0" font-family="none" font-weight="none" font-size="none" text-anchor="none" style="mix-blend-mode: normal"><g transform="translate(0.00015,0.00015)"><g><g transform="scale(2.1157,2.1157)"><g id="Layer_2"><g id="Icons"><path d="M110.28,78.58v-14.28c0,1.73417 -1.40583,3.14 -3.14,3.14h-30c-1.73417,0 -3.14,-1.40583 -3.14,-3.14v-50h-5.42v11.08h-58.5v29.13h58.5v24.07h-68.08v6.3h120v-6.3z" fill="#e8f1f5" stroke="none" stroke-linejoin="miter"></path><circle cx="92.14" cy="46.59" r="5" fill="#e8f1f5" stroke="none" stroke-linejoin="miter"></circle><circle cx="15.09" cy="68.81" r="5" fill="#e8f1f5" stroke="none" stroke-linejoin="miter"></circle><rect x="77.52" y="11.45" width="29.25" height="24.72" fill="#e8f1f5" stroke="none" stroke-linejoin="miter"></rect><rect x="48.92" y="96.18" width="23.17" height="9.82" fill="#e8f1f5" stroke="none" stroke-linejoin="miter"></rect><path d="M110.28,6.5c0,-1.38071 -1.11929,-2.5 -2.5,-2.5h-31.28c-1.38071,0 -2.5,1.11929 -2.5,2.5" fill="none" stroke="#2b86a0" stroke-linejoin="round"></path><path d="M92.14,75.56h14.39c2.07107,0 3.75,-1.67893 3.75,-3.75v-67.56c0,-2.07107 -1.67893,-3.75 -3.75,-3.75h-28.78c-2.07107,0 -3.75,1.67893 -3.75,3.75v67.56c0,2.07107 1.67893,3.75 3.75,3.75h14.39" fill="none" stroke="#2b86a0" stroke-linejoin="round"></path><path d="M110.28,68.06c0,1.38071 -1.11929,2.5 -2.5,2.5h-31.28c-1.38071,0 -2.5,-1.11929 -2.5,-2.5" fill="none" stroke="#2b86a0" stroke-linejoin="round"></path><path d="M77.52,56.59h29.25" fill="none" stroke="#2b86a0" stroke-linejoin="round"></path><path d="M77.52,60.44h29.25" fill="none" stroke="#2b86a0" stroke-linejoin="round"></path><path d="M86.03,64.3h12.22" fill="none" stroke="#2b86a0" stroke-linejoin="round"></path><path d="M24.92,63.81h43.66" fill="none" stroke="#2b86a0" stroke-linejoin="round"></path><path d="M24.92,68.81h43.66" fill="none" stroke="#2b86a0" stroke-linejoin="round"></path><path d="M24.92,73.82h9.83" fill="none" stroke="#2b86a0" stroke-linejoin="round"></path><path d="M110.28,14.32h6.22c2.20914,0 4,1.79086 4,4v66.55" fill="none" stroke="#2b86a0" stroke-linejoin="round"></path><path d="M0.5,84.87v-66.55c0,-2.20914 1.79086,-4 4,-4h64.08" fill="none" stroke="#2b86a0" stroke-linejoin="round"></path><path d="M72.08,96.18v16.15" fill="none" stroke="#2b86a0" stroke-linejoin="round"></path><path d="M48.92,112.33v-16.15" fill="none" stroke="#2b86a0" stroke-linejoin="round"></path><rect x="30.75" y="117.33" width="59.5" height="3.17" fill="none" stroke="#2b86a0" stroke-linejoin="round"></rect><path d="M120.5,84.87v7.31c0,2.20914 -1.79086,4 -4,4h-112c-2.20914,0 -4,-1.79086 -4,-4v-7.3z" fill="none" stroke="#2b86a0" stroke-linejoin="round"></path></g></g></g></g></g></g></svg>