<svg version="1.1" xmlns="http://www.w3.org/2000/svg" xmlns:xlink="http://www.w3.org/1999/xlink" width="121px" height="121px" viewBox="0,0,256,256"><g fill="none" fill-rule="nonzero" stroke="none" stroke-width="1" stroke-linecap="butt" stroke-linejoin="none" stroke-miterlimit="10" stroke-dasharray="" stroke-dashoffset="0" font-family="none" font-weight="none" font-size="none" text-anchor="none" style="mix-blend-mode: normal"><g transform="translate(0.00015,0.00015)"><g><g transform="translate(-0.0282,-0.00016) scale(2.1157,2.1157)"><g id="Layer_2"><g id="Stuff"><path d="M71.79,25c0,0 -41.08,10.27 -21.46,32.88v0c5.79,6.66 -1.52,12.66 -1.52,12.66c0,0 14.7,-7.54 7.95,-17.09c-6.31,-8.86 -11.14,-13.26 15.03,-28.45z" fill="none" stroke="#2b86a0" stroke-linejoin="round"></path><path d="M44.93,32.15c24.28,-19.15 11.85,-31.63 11.83,-31.65c5,19.81 -17.74,25.79 -25.95,38.13c-5.6,8.41 2.74,17.44 14.11,27.7c-4.43,-10.02 -19.47,-18.79 0.01,-34.18z" fill="none" stroke="#2b86a0" stroke-linejoin="round"></path><path d="M60.91,83.25c-13.91,2.67 -21.91,2.58 -32.07,1.53c-7.84,-0.78 -2.71,-4.61 -2.71,-4.62c-20.32,6.75 11.31,14.4 39.71,6.1c-1.83037,-0.6588 -3.50768,-1.68288 -4.93,-3.01z" fill="#e8f1f5" stroke="none" stroke-linejoin="miter"></path><path d="M29,93.3c-18.45,5.16 11.23,15.81 34.72,5.7c-2.29136,-0.88233 -4.5028,-1.95961 -6.61,-3.22c-10.47,2 -15.33,2.14 -24.84,1.05c-7.85,-0.83 -3.27,-3.53 -3.27,-3.53z" fill="#e8f1f5" stroke="none" stroke-linejoin="miter"></path><path d="M64.94,73.86c1.74495,-1.12523 3.57752,-2.1084 5.48,-2.94c0,0 -9.06,1.62 -18.09,2.38c-11,0.93 -22.9,1.11 -28.84,0.31c-14.09,-1.88 7.72,-7.06 7.72,-7.06v0c0,0 -8.47,-0.55 -18.89,4.45c-12.32,6 30.47,8.68 52.62,2.86z" fill="#e8f1f5" stroke="none" stroke-linejoin="miter"></path><path d="M70.33,88.42c-0.10954,0.22447 -0.26249,0.425 -0.45,0.59c30.07,-7.9 19,-27.86 4.64,-22.81c-0.77588,0.29121 -1.44529,0.8107 -1.92,1.49c0.83545,-0.30521 1.69517,-0.53937 2.57,-0.7c7.27,-1.51 17.68,9.73 -4.84,21.43z" fill="#e8f1f5" stroke="none" stroke-linejoin="miter"></path><path d="M81.4,103c0,0 3.39,2.8 -3.74,5c-13.56,4.11 -56.43,5.35 -68.34,0.16c-4.28,-1.86 3.74,-4.44 6.27,-5c1.3544,-0.33118 2.74594,-0.4858 4.14,-0.46c-4.73,-3.37 -30.73,6.58 -13.21,9.42c47.89,7.77 87.3,-3.5 74.88,-9.12z" fill="#e8f1f5" stroke="none" stroke-linejoin="miter"></path><path d="M71.14,116.08c-18.44,3.48 -41.19,3.07 -54.68,0.85c0,0 2.76,2.28 17,3.19v0c21.61,1.39 54.8,-0.76 55.58,-11c-0.04,0.01 -1.55,3.88 -17.9,6.96z" fill="#e8f1f5" stroke="none" stroke-linejoin="miter"></path><path d="M60.91,83.25c-13.91,2.67 -21.91,2.58 -32.07,1.53c-7.84,-0.78 -2.71,-4.61 -2.71,-4.62c-20.32,6.75 11.31,14.4 39.71,6.1c-1.83037,-0.6588 -3.50768,-1.68288 -4.93,-3.01z" fill="none" stroke="#2b86a0" stroke-linejoin="round"></path><path d="M29,93.3c-18.45,5.16 11.23,15.81 34.72,5.7c-2.29136,-0.88233 -4.5028,-1.95961 -6.61,-3.22c-10.47,2 -15.33,2.14 -24.84,1.05c-7.85,-0.83 -3.27,-3.53 -3.27,-3.53z" fill="none" stroke="#2b86a0" stroke-linejoin="round"></path><path d="M64.94,73.86c1.74495,-1.12523 3.57752,-2.1084 5.48,-2.94c0,0 -9.06,1.62 -18.09,2.38c-11,0.93 -22.9,1.11 -28.84,0.31c-14.09,-1.88 7.72,-7.06 7.72,-7.06v0c0,0 -8.47,-0.55 -18.89,4.45c-12.32,6 30.47,8.68 52.62,2.86z" fill="none" stroke="#2b86a0" stroke-linejoin="round"></path><path d="M70.33,88.42c-0.10954,0.22447 -0.26249,0.425 -0.45,0.59c30.07,-7.9 19,-27.86 4.64,-22.81c-0.77588,0.29121 -1.44529,0.8107 -1.92,1.49c0.83545,-0.30521 1.69517,-0.53937 2.57,-0.7c7.27,-1.51 17.68,9.73 -4.84,21.43z" fill="none" stroke="#2b86a0" stroke-linejoin="round"></path><path d="M81.4,103c0,0 3.39,2.8 -3.74,5c-13.56,4.11 -56.43,5.35 -68.34,0.16c-4.28,-1.86 3.74,-4.44 6.27,-5c1.3544,-0.33118 2.74594,-0.4858 4.14,-0.46c-4.73,-3.37 -30.73,6.58 -13.21,9.42c47.89,7.77 87.3,-3.5 74.88,-9.12z" fill="none" stroke="#2b86a0" stroke-linejoin="round"></path><path d="M71.14,116.08c-18.44,3.48 -41.19,3.07 -54.68,0.85c0,0 2.76,2.28 17,3.19v0c21.61,1.39 54.8,-0.76 55.58,-11c-0.04,0.01 -1.55,3.88 -17.9,6.96z" fill="none" stroke="#2b86a0" stroke-linejoin="round"></path><circle cx="92.11" cy="28.89" r="28.39" fill="#ffffff" stroke="#2b86a0" stroke-linejoin="round"></circle><path d="M84.2,34.81l-5.92,-5.92l5.92,-5.91" fill="none" stroke="#2b86a0" stroke-linejoin="miter"></path><path d="M100.02,34.81l5.92,-5.92l-5.92,-5.91" fill="none" stroke="#2b86a0" stroke-linejoin="miter"></path><path d="M88.2,40.09l7.82,-22.4" fill="none" stroke="#2b86a0" stroke-linejoin="miter"></path></g></g></g></g></g></g></svg>