<svg version="1.1" xmlns="http://www.w3.org/2000/svg" xmlns:xlink="http://www.w3.org/1999/xlink" width="121px" height="121px" viewBox="0,0,256,256"><g fill="none" fill-rule="nonzero" stroke="none" stroke-width="1" stroke-linecap="butt" stroke-linejoin="none" stroke-miterlimit="10" stroke-dasharray="" stroke-dashoffset="0" font-family="none" font-weight="none" font-size="none" text-anchor="none" style="mix-blend-mode: normal"><g transform="translate(0,-0.02104) scale(2.1157,2.1157)"><g id="Layer_2"><g id="Stuff"><rect x="6.34" y="53.35" width="31.17" height="6.41" fill="#e8f1f5" stroke="none" stroke-linejoin="miter"></rect><path d="M109.73,47.22v-17.87c0,-9.97426 -8.08574,-18.06 -18.06,-18.06h-10.51" fill="none" stroke="#2b86a0" stroke-linejoin="round"></path><path d="M72.02,11.29l9.14,5.86v-5.86v-5.85z" fill="none" stroke="#2b86a0" stroke-linejoin="miter"></path><path d="M11.27,75.17v16.48c-0.00265,4.79062 1.89924,9.3858 5.28672,12.77328c3.38748,3.38748 7.98266,5.28937 12.77328,5.28672h0.51" fill="none" stroke="#2b86a0" stroke-linejoin="round"></path><path d="M38.98,109.71l-9.14,-5.86v5.86v5.85z" fill="none" stroke="#2b86a0" stroke-linejoin="miter"></path><path d="M47.83,16.18l1.59,5.49c0,0 10.33,-5.49 10.08,-5.49h-11.67" fill="#e8f1f5" stroke="none" stroke-linejoin="miter"></path><path d="M117.59,87.62l-1,-0.65l1,-0.65c3.86,-2.58 3.86,-6.8 0,-9.39l-1,-0.65l-30.88,20.63c-4.4686,2.98052 -10.2914,2.98052 -14.76,0l-30.95,-20.63l-1,0.65c-3.87,2.59 -3.87,6.81 0,9.39l1,0.68l-1,0.65c-3.87,2.58 -3.87,6.81 0,9.39l32.24,21.55c4.31436,2.56444 9.68564,2.56444 14,0l32.35,-21.59c3.86,-2.57 3.86,-6.8 0,-9.38z" fill="#e8f1f5" stroke="none" stroke-linejoin="miter"></path><path d="M117.59,66.25l-32.24,-21.55c-4.31196,-2.57318 -9.68804,-2.57318 -14,0l-32.28,21.55c-3.88,2.59 -3.88,6.79 0,9.38l32.24,21.55c4.31196,2.57318 9.68804,2.57318 14,0l32.24,-21.55c3.92,-2.63 3.92,-6.79 0.04,-9.38z" fill="none" stroke="#2b86a0" stroke-linejoin="round"></path><path d="M40,76.28l-1,0.65c-3.88,2.6 -3.88,6.8 0,9.39l32.24,21.55c4.31196,2.57318 9.68804,2.57318 14,0l32.24,-21.55c3.88,-2.59 3.88,-6.79 0,-9.39l-1,-0.65" fill="none" stroke="#2b86a0" stroke-linejoin="round"></path><path d="M40,87l-1,0.65c-3.88,2.59 -3.88,6.8 0,9.39l32.24,21.55c4.31196,2.57318 9.68804,2.57318 14,0l32.35,-21.59c3.88,-2.59 3.88,-6.8 0,-9.39l-1,-0.65" fill="none" stroke="#2b86a0" stroke-linejoin="round"></path><path d="M96.47,67.43c-3.4,-2.27 -8.86,-2.67 -12.3,-1l-0.39,0.17c1.81,-2.07 1.66,-5.05 -1.75,-7.33c-4.07,-2.72 -10,-2.84 -15,0.5l-12.56,8.4l28,18.71l13.48,-9c5.14,-3.44 4.93,-7.51 0.52,-10.45zM62.34,67.85l7.56,-5c2.53276,-1.76458 5.87855,-1.83166 8.48,-0.17c2.31,1.54 2.52,3.76 -0.3,5.64l-7.56,5zM91.34,76.04l-8.34,5.59l-8.73,-5.84l8.35,-5.58c2.67986,-1.87324 6.21646,-1.97541 9,-0.26c2.71,1.83 2.63,4.13 -0.31,6.05z" fill="#e8f1f5" stroke="none" stroke-linejoin="miter"></path><path d="M96.47,67.43c-3.4,-2.27 -8.86,-2.67 -12.3,-1l-0.39,0.17c1.81,-2.07 1.66,-5.05 -1.75,-7.33c-4.07,-2.72 -10,-2.84 -15,0.5l-12.56,8.4l28,18.71l13.48,-9c5.14,-3.44 4.93,-7.51 0.52,-10.45zM62.34,67.85l7.56,-5c2.53276,-1.76458 5.87855,-1.83166 8.48,-0.17c2.31,1.54 2.52,3.76 -0.3,5.64l-7.56,5zM91.34,76.04l-8.34,5.59l-8.73,-5.84l8.35,-5.58c2.67986,-1.87324 6.21646,-1.97541 9,-0.26c2.71,1.83 2.63,4.13 -0.31,6.05z" fill="none" stroke="#2b86a0" stroke-linejoin="round"></path><path d="M59.5,47.22v-31.04l-15.68,-15.68l-37.48,0.04v28.71" fill="none" stroke="#2b86a0" stroke-linejoin="miter"></path><path d="M6.34,53.35v12.82h32.72" fill="none" stroke="#2b86a0" stroke-linejoin="miter"></path><path d="M43.82,0.5v15.68h15.68" fill="none" stroke="#2b86a0" stroke-linejoin="miter"></path><rect x="0.5" y="32.16" width="43.32" height="21.19" fill="none" stroke="#2b86a0" stroke-linejoin="miter"></rect><path d="M6.82,48.07v-10.63h4.66c1.77446,-0.00001 3.21449,1.43555 3.22,3.21v0c0,0.85308 -0.33956,1.67108 -0.94372,2.27336c-0.60416,0.60228 -1.4232,0.9393 -2.27628,0.93664h-4.66" fill="none" stroke="#2b86a0" stroke-linejoin="miter"></path><path d="M25.32,40.65v-0.55c0,-1.46908 -1.19092,-2.66 -2.66,-2.66h-2.93c-1.46908,0 -2.66,1.19092 -2.66,2.66v0c0.00551,1.46517 1.19482,2.65001 2.66,2.65h2.93c1.46908,0 2.66,1.19092 2.66,2.66v0c0,1.46908 -1.19092,2.66 -2.66,2.66h-2.93c-1.46908,0 -2.66,-1.19092 -2.66,-2.66v0" fill="none" stroke="#2b86a0" stroke-linejoin="miter"></path><path d="M28.64,37.44h4.36c2.47976,0 4.49,2.01024 4.49,4.49v1.65c0,2.47976 -2.01024,4.49 -4.49,4.49h-4.36z" fill="none" stroke="#2b86a0" stroke-linejoin="miter"></path></g></g></g></g></svg>